<?xml version="1.0" encoding="UTF-8" standalone="no"?>
<!-- Generator: Adobe Illustrator 24.1.0, SVG Export Plug-In . SVG Version: 6.00 Build 0)  -->

<svg
   xmlns:dc="http://purl.org/dc/elements/1.1/"
   xmlns:cc="http://creativecommons.org/ns#"
   xmlns:rdf="http://www.w3.org/1999/02/22-rdf-syntax-ns#"
   xmlns:svg="http://www.w3.org/2000/svg"
   xmlns="http://www.w3.org/2000/svg"
   xmlns:sodipodi="http://sodipodi.sourceforge.net/DTD/sodipodi-0.dtd"
   xmlns:inkscape="http://www.inkscape.org/namespaces/inkscape"
   version="1.1"
   id="Layer_1"
   x="0px"
   y="0px"
   viewBox="0 0 150 150"
   xml:space="preserve"
   sodipodi:docname="exclaim.svg"
   inkscape:version="0.92.4 (5da689c313, 2019-01-14)"
   inkscape:export-filename="C:\Users\Jeremy\Documents\FrontEnd\DayStand\Standing-Timer\images\redexclaim.png"
   inkscape:export-xdpi="48.927578"
   inkscape:export-ydpi="48.927578"
   width="150"
   height="150"><metadata
   id="metadata227"><rdf:RDF><cc:Work
       rdf:about=""><dc:format>image/svg+xml</dc:format><dc:type
         rdf:resource="http://purl.org/dc/dcmitype/StillImage" /><dc:title></dc:title></cc:Work></rdf:RDF></metadata><defs
   id="defs225" /><sodipodi:namedview
   pagecolor="#ffffff"
   bordercolor="#666666"
   borderopacity="1"
   objecttolerance="10"
   gridtolerance="10"
   guidetolerance="10"
   inkscape:pageopacity="0"
   inkscape:pageshadow="2"
   inkscape:window-width="1920"
   inkscape:window-height="1017"
   id="namedview223"
   showgrid="false"
   inkscape:zoom="1.888"
   inkscape:cx="50.704041"
   inkscape:cy="-14.312644"
   inkscape:window-x="-8"
   inkscape:window-y="-8"
   inkscape:window-maximized="1"
   inkscape:current-layer="g220"
   fit-margin-top="0"
   fit-margin-left="0"
   fit-margin-right="0"
   fit-margin-bottom="0" />
<style
   type="text/css"
   id="style2">
	.st0{fill:#B7B7C4;}
	.st1{fill:#735639;}
	.st2{fill:#0C0454;}
	.st3{fill:#110580;}
	.st4{fill:#FFFFFF;}
	.st5{fill:#FCB58A;}
	.st6{fill:#E3996D;}
	.st7{fill:#E8D4C1;}
	.st8{fill:#7A5734;}
	.st9{fill:#DEC7B2;}
	.st10{fill:#BA9C7E;}
	.st11{fill:#4C7378;}
	.st12{fill:#689399;}
	.st13{fill:#57848A;}
	.st14{fill:#EBDBCD;}
	.st15{fill:#F0A173;}
	.st16{fill:#FF8A91;}
	.st17{fill:#001D80;}
	.st18{fill:#AB534D;}
	.st19{fill:#FFADB2;}
	.st20{fill:#C7645D;}
	.st21{fill:#AB8868;}
	.st22{fill:#D7D7E6;}
	.st23{fill:#8A6645;}
	.st24{fill:#C49C77;}
	.st25{fill:#787CCB;}
	.st26{fill:#FCFAF8;}
	.st27{fill:#E0E0E0;}
	.st28{fill:#D6D7F0;}
	.st29{fill:#FF5856;}
	.st30{fill:#DCDCED;}
</style>
<g
   id="g220"
   transform="matrix(-1,0,0,1,813.52303,-117.75097)">
	
	
	
	
	
	
	
	
	
	
	
	
	
	
	
	
	
	
	
	
	
	
	
	
	
	
	
	
	
	
	
	<g
   id="g174">
		
	</g>
	
	
	
	
	
	
	
	<g
   id="g200"
   transform="matrix(-1,0,0,1,1529.0196,-3.0302565)"
   style="fill:#ff0006;fill-opacity:1">
		<path
   class="st28"
   d="m 790.3,251.7 c -0.4,2.3 -0.8,4.9 0,7.2 0.6,2 1.6,3.9 3.1,5.3 1.2,1.2 2.3,2 3.9,2.5 1.4,0.8 2.9,1.2 4.7,1 2.2,0 4.3,-0.6 6.1,-1.6 0,0 0.2,0 0.2,-0.2 -1,0.4 -2,0.8 -2.9,1.2 h 0.2 c -1.2,0.2 -2.2,0.4 -3.3,0.4 0,0 0,0 0.2,0 1.2,-0.2 2.2,-0.4 3.3,-0.4 1,-0.4 2,-0.8 2.9,-1.2 0.8,-0.6 1.8,-1.4 2.5,-2 0.6,-0.8 1.4,-1.8 2,-2.5 0.4,-1 0.8,-2 1.2,-2.9 0.2,-1.2 0.4,-2.2 0.4,-3.3 -0.2,-1.2 -0.4,-2.2 -0.4,-3.3 -0.4,-1.6 -1.2,-3.1 -2.3,-4.3 -0.6,-1 -1.4,-1.8 -2.3,-2.3 -0.8,-0.8 -1.8,-1.4 -2.7,-1.6 -1,-0.6 -2,-0.8 -3.1,-0.8 -1.2,-0.4 -2.2,-0.4 -3.3,0 -1.2,0 -2.2,0.2 -3.1,0.8 -1,0.4 -2,0.8 -2.7,1.6 -1,0.6 -1.8,1.4 -2.3,2.3 -1.2,1.2 -2,2.5 -2.3,4.1 z"
   id="path196"
   inkscape:connector-curvature="0"
   style="fill:#ff0006;fill-opacity:1" />
		<path
   class="st28"
   d="m 787.6,228.4 c 8.2,4.1 19,-0.8 18.8,-10.8 -5.70385,-146.73752 -73.99062,-104.29839 -18.8,10.8 z"
   id="path198"
   inkscape:connector-curvature="0"
   style="fill:#ff0006;fill-opacity:1"
   sodipodi:nodetypes="ccc" />
	</g>
	
	
</g>
</svg>