<?xml version="1.0" encoding="UTF-8" standalone="no"?>
<!-- Generator: Adobe Illustrator 24.1.0, SVG Export Plug-In . SVG Version: 6.00 Build 0)  -->

<svg
   xmlns:dc="http://purl.org/dc/elements/1.1/"
   xmlns:cc="http://creativecommons.org/ns#"
   xmlns:rdf="http://www.w3.org/1999/02/22-rdf-syntax-ns#"
   xmlns:svg="http://www.w3.org/2000/svg"
   xmlns="http://www.w3.org/2000/svg"
   xmlns:sodipodi="http://sodipodi.sourceforge.net/DTD/sodipodi-0.dtd"
   xmlns:inkscape="http://www.inkscape.org/namespaces/inkscape"
   version="1.1"
   id="Layer_1"
   x="0px"
   y="0px"
   viewBox="0 0 1910.4 2000"
   xml:space="preserve"
   sodipodi:docname="girl-sitiing-on-table-conducting-an-interview-by-oblik-studio.svg"
   inkscape:version="0.92.4 (5da689c313, 2019-01-14)"
   inkscape:export-filename="C:\Users\Jeremy\Documents\FrontEnd\DayStand\Standing-Timer\images\sitting.png"
   inkscape:export-xdpi="60.723995"
   inkscape:export-ydpi="60.723995"
   style="enable-background:new 0 0 1910.4 2000;"><metadata
   id="metadata227"><rdf:RDF><cc:Work
       rdf:about=""><dc:format>image/svg+xml</dc:format><dc:type
         rdf:resource="http://purl.org/dc/dcmitype/StillImage" /><dc:title /></cc:Work></rdf:RDF></metadata><defs
   id="defs225" /><sodipodi:namedview
   pagecolor="#ffffff"
   bordercolor="#666666"
   borderopacity="1"
   objecttolerance="10"
   gridtolerance="10"
   guidetolerance="10"
   inkscape:pageopacity="0"
   inkscape:pageshadow="2"
   inkscape:window-width="1920"
   inkscape:window-height="1017"
   id="namedview223"
   showgrid="false"
   inkscape:zoom="0.3337544"
   inkscape:cx="-218.27656"
   inkscape:cy="924.04017"
   inkscape:window-x="-8"
   inkscape:window-y="-8"
   inkscape:window-maximized="1"
   inkscape:current-layer="g220" />
<style
   type="text/css"
   id="style2">
	.st0{fill:#B7B7C4;}
	.st1{fill:#735639;}
	.st2{fill:#0C0454;}
	.st3{fill:#110580;}
	.st4{fill:#FFFFFF;}
	.st5{fill:#FCB58A;}
	.st6{fill:#E3996D;}
	.st7{fill:#E8D4C1;}
	.st8{fill:#7A5734;}
	.st9{fill:#DEC7B2;}
	.st10{fill:#BA9C7E;}
	.st11{fill:#4C7378;}
	.st12{fill:#689399;}
	.st13{fill:#57848A;}
	.st14{fill:#EBDBCD;}
	.st15{fill:#F0A173;}
	.st16{fill:#FF8A91;}
	.st17{fill:#001D80;}
	.st18{fill:#AB534D;}
	.st19{fill:#FFADB2;}
	.st20{fill:#C7645D;}
	.st21{fill:#AB8868;}
	.st22{fill:#D7D7E6;}
	.st23{fill:#8A6645;}
	.st24{fill:#C49C77;}
	.st25{fill:#787CCB;}
	.st26{fill:#FCFAF8;}
	.st27{fill:#E0E0E0;}
	.st28{fill:#D6D7F0;}
	.st29{fill:#FF5856;}
	.st30{fill:#DCDCED;}
</style>
<g
   id="g220"
   transform="matrix(-1,0,0,1,1910.4569,0)">
	<path
   class="st0"
   d="m 1377.4,1721.4 h -183.3 c -6.1,0 -10.9,-4.9 -10.9,-10.9 v -8.6 c 0,-6.1 4.9,-10.9 10.9,-10.9 h 183.3 c 6.1,0 10.9,4.9 10.9,10.9 v 8.6 c -0.1,6 -5,10.9 -10.9,10.9 z"
   id="path4"
   inkscape:connector-curvature="0"
   style="fill:#b7b7c4" />
	<rect
   x="1257.4"
   y="1204.8"
   class="st1"
   width="56.5"
   height="486.10001"
   id="rect6"
   style="fill:#735639" />
	<path
   class="st2"
   d="m 1335,377.8 49.3,-4.7 10,96.9 c 0,0 -13.9,4.7 -28.3,5.5 -14.7,0.8 -28.3,0 -28.3,0 z"
   id="path8"
   inkscape:connector-curvature="0"
   style="fill:#0c0454" />
	<path
   class="st3"
   d="m 1148.3,234.1 c -16.2,33.6 -52,179.2 -52,179.2 -1.2,3.1 0,6.6 2.9,8.6 9.4,6.5 31.5,27 74.5,40.7 20.9,6.6 72.1,15.2 95.6,13.5 4.3,-0.4 7.4,-4.1 7.4,-4.1 l 23.8,-333.9 c -100.8,-5.1 -142.6,76.3 -152.2,96 z"
   id="path10"
   inkscape:connector-curvature="0"
   style="fill:#110580" />
	<path
   class="st4"
   d="m 1187.6,421.9 c -16.4,0 -29.5,-23.1 -29.5,-52.4 0,-29.3 12.9,-52.4 29.5,-52.4 16.4,0 29.5,23.1 29.5,52.4 0,29.6 -13.1,52.4 -29.5,52.4 z m 0,-97.5 c -12.1,0 -22.3,20.7 -22.3,45.3 0,24.6 10.2,45.3 22.3,45.3 12.1,0 22.3,-20.7 22.3,-45.3 0,-24.6 -10.2,-45.3 -22.3,-45.3 z"
   id="path12"
   inkscape:connector-curvature="0"
   style="fill:#ffffff" />
	<ellipse
   class="st5"
   cx="1301.2"
   cy="288.79999"
   rx="151.89999"
   ry="143.3"
   id="ellipse14"
   style="fill:#fcb58a" />
	<path
   class="st6"
   d="m 1368.2,417.3 c -2.3,-56.7 -5.3,-128.8 -5.3,-131 0,0 -32.1,-8.6 -50.4,-25.8 -5.7,-5.5 -9.8,-10.9 -12.5,-16.2 2.2,8.2 5.9,16.8 13.5,25.6 16.4,19 41.4,32.4 41.4,32.4 -0.2,2 2,65.7 -1.2,120.8 5.2,-1.7 9.8,-3.7 14.5,-5.8 z"
   id="path16"
   inkscape:connector-curvature="0"
   style="fill:#e3996d" />
	<g
   id="g100">
		<path
   class="st7"
   d="m 1707.4,1348.8 c -81.1,0 -146.8,2.9 -147.2,6.5 v 0 c 0.4,3.5 66.1,6.5 147.2,6.5 80.9,0 146.8,-2.9 147.2,-6.5 v 0 c -0.4,-3.7 -66.1,-6.5 -147.2,-6.5 z m 3.3,11.2 c -60.8,0 -110,-2.2 -110,-4.9 0,-2.7 49.3,-4.9 110,-4.9 60.7,0 110,2.2 110,4.9 0.2,2.7 -49.2,4.9 -110,4.9 z"
   id="path18"
   inkscape:connector-curvature="0"
   style="fill:#e8d4c1" />
		<path
   class="st7"
   d="m 1707.4,1348.8 c -81.3,0 -147.2,2.9 -147.2,6.5 0,3.6 65.9,6.5 147.2,6.5 81.3,0 147.2,-2.9 147.2,-6.5 0,-3.6 -65.9,-6.5 -147.2,-6.5 z m 3.3,11.2 c -60.8,0 -110,-2.2 -110,-4.9 0,-2.7 49.3,-4.9 110,-4.9 60.7,0 110,2.2 110,4.9 0.2,2.7 -49.2,4.9 -110,4.9 z"
   id="path20"
   inkscape:connector-curvature="0"
   style="fill:#e8d4c1" />
		<path
   class="st8"
   d="m 1822.7,1377 v 0 c 0,0 0,-0.2 0,-0.4 0,0 0,0.2 0,0.4 z"
   id="path22"
   inkscape:connector-curvature="0"
   style="fill:#7a5734" />
		<path
   class="st9"
   d="m 1560.2,1355.3 v 0 0 z"
   id="path24"
   inkscape:connector-curvature="0"
   style="fill:#dec7b2" />
		<path
   class="st9"
   d="m 1854.5,1355.3 v 0 0 z"
   id="path26"
   inkscape:connector-curvature="0"
   style="fill:#dec7b2" />
		<ellipse
   class="st10"
   cx="1710.7"
   cy="1355.1"
   rx="110"
   ry="4.9000001"
   id="ellipse28"
   style="fill:#ba9c7e" />
		<g
   id="g86">
			<path
   class="st11"
   d="m 1791.6,794.7 c -31.5,74.7 -53.9,153.2 -66.7,233.4 -12.8,80.2 -16.2,161.6 -10,242.6 3.5,45.3 10.2,90.5 19.7,134.9 1.8,8 14.1,4.7 12.3,-3.3 -17,-78.6 -24.2,-158.9 -22.1,-239.2 2.2,-79.9 13.9,-159.7 34.8,-236.9 11.7,-43.6 26.6,-86.4 44.2,-128 1.4,-3.1 -1.4,-7 -4.5,-7.8 -3.6,-1.2 -6.5,1.2 -7.7,4.3 z"
   id="path30"
   inkscape:connector-curvature="0"
   style="fill:#4c7378" />
			<path
   class="st11"
   d="m 1795.7,1132.8 c -31.5,68.2 -50.2,141.7 -55.3,216.6 -1.4,20.9 -1.8,42 -1,62.9 0.4,8.2 13.1,8.2 12.7,0 -2.7,-73.1 8,-146.2 31.5,-215.4 6.6,-19.5 14.3,-38.9 23.1,-57.7 3.5,-7.3 -7.5,-13.8 -11,-6.4 z"
   id="path32"
   inkscape:connector-curvature="0"
   style="fill:#4c7378" />
			<path
   class="st11"
   d="m 1635.4,811.5 c 20.1,69.4 34.4,140.3 45,211.7 10.6,71.4 17.4,143.3 22.9,215 3.1,40.7 5.9,81.5 8.4,122.4 0.6,8.2 13.3,8.2 12.7,0 -4.7,-72.5 -9.6,-145.2 -16.6,-217.5 -7.2,-72.1 -16.6,-144.3 -30.9,-215.4 -8,-40.3 -17.6,-80.1 -29.1,-119.6 -2.4,-7.9 -14.5,-4.6 -12.4,3.4 z"
   id="path34"
   inkscape:connector-curvature="0"
   style="fill:#4c7378" />
			<path
   class="st11"
   d="m 1561,1019.9 c 17.4,17.8 28.1,40.5 37.5,63.1 10.4,25 19.5,50.6 27.4,76.6 15.6,51.4 26.8,104.2 32.6,157.5 3.3,29.9 5.1,60 5.3,90.3 0,8.2 12.7,8.2 12.7,0 -0.4,-55.1 -6.1,-110.2 -16.6,-164.2 -10.6,-53.9 -26.4,-107.1 -47.1,-158.1 -10.8,-26.6 -22.5,-53.4 -43,-74.1 -5.7,-6 -14.7,3 -8.8,8.9 z"
   id="path36"
   inkscape:connector-curvature="0"
   style="fill:#4c7378" />
			<path
   class="st11"
   d="m 1648.7,1272.4 c -9.4,-11.5 -21.1,-19.4 -30.9,-23.3 -9.8,-3.9 -17.6,-3.9 -19.9,-1.4 -2.3,2.5 -1.8,10.2 1.6,19.5 3.4,9.3 9,20.5 17.4,30.9 8.4,10.4 18.4,18 27.2,23.1 8.6,5.1 16,7.2 18.2,5.9 2.7,-1.8 4.3,-9.4 2.5,-19.7 -1.6,-10.4 -6.7,-23.5 -16.1,-35 z"
   id="path38"
   inkscape:connector-curvature="0"
   style="fill:#4c7378" />
			<path
   class="st12"
   d="m 1689,1186.2 c 7.8,-38.3 0.6,-71.7 -6.6,-73.1 -7,-1.2 -25.8,27.2 -33.4,64.9 -7.6,37.7 0.2,71.5 5.3,72.7 6.4,1.6 26.9,-26.2 34.7,-64.5 z"
   id="path40"
   inkscape:connector-curvature="0"
   style="fill:#689399" />
			
				<ellipse
   transform="matrix(0.7008,-0.7134,0.7134,0.7008,-374.0797,1497.0967)"
   class="st11"
   cx="1597.6"
   cy="1194.5"
   rx="20.5"
   ry="79.800003"
   id="ellipse42"
   style="fill:#4c7378" />
			<path
   class="st13"
   d="m 1712.8,1296.1 c 3.7,-15.8 5.7,-31.3 6.5,-45.5 0.8,-14.1 0.4,-27 -1,-37.5 -2.5,-21.5 -7.6,-34.4 -11.1,-34.4 -3.5,0 -8.8,12.5 -14.7,32.3 -2.9,9.8 -6.3,21.5 -9.4,34.2 -3.3,12.9 -6.8,26.8 -10.2,41.6 -3.5,14.7 -6.5,28.9 -9,41.8 -2.5,12.9 -4.7,25 -6.5,35.2 -3.3,20.3 -4.1,34 -1.8,35.2 2.9,1.4 13.3,-8 25,-26 5.9,-9 11.9,-20.3 17.6,-33.2 5.8,-13.1 10.9,-27.9 14.6,-43.7 z"
   id="path44"
   inkscape:connector-curvature="0"
   style="fill:#57848a" />
			<path
   class="st13"
   d="m 1796.1,1312.1 c 12.1,-21.5 21.1,-42.2 26.2,-58.2 5.3,-16 6.6,-27.2 3.5,-29.3 -2.9,-2 -12.9,3.7 -25.4,15.2 -12.5,11.7 -27.6,29.7 -40.1,51.8 -12.5,22.3 -19.9,44.6 -23.3,61.4 -1.8,8.4 -2.5,15.4 -2.5,20.5 0,1.6 -0.6,3.7 0.6,6.3 0.2,0.6 0.6,1.2 1,1.6 0.4,0.6 1.4,1.2 2,1.4 1.4,0.4 2.3,0 2.9,-0.4 1.2,-0.8 2,-2.2 1.6,-3.1 -0.4,-1 -1,-0.6 -1.2,-0.6 -0.2,0.2 -0.4,0.2 -0.6,0.4 -0.2,0.2 0.2,0 0,0 0,0 -0.2,0 -0.4,-0.2 -0.2,-0.2 -0.4,-0.6 -0.4,-0.6 0,0 0,0.4 0,0.8 0,0 0,0 0,0.2 v 0 l 0.8,-0.6 v 0 c 0,0 0,0 0.2,0 0.4,0 1.2,-0.2 2.7,0.2 h 0.4 v 0 h 0.2 0.2 c 0.2,0 0.4,0 0.6,-0.2 4.1,-3.1 9,-8 14.5,-14.5 11.1,-12.4 24.4,-30.8 36.5,-52.1 z"
   id="path46"
   inkscape:connector-curvature="0"
   style="fill:#57848a" />
			<path
   class="st11"
   d="m 1763.7,1215.1 c -3.1,-27.2 -10,-51 -16.8,-68 -6.8,-16.8 -13.5,-27 -17.2,-26.4 -3.5,0.6 -6.8,12.1 -8.6,30.1 -1.6,18 -1.6,42.6 1.6,68.8 1.6,13.3 3.7,25.6 6.3,36.9 2.5,11.3 5.3,21.1 7.2,29.3 2.2,8.2 3.7,14.9 5.1,19.9 1.2,4.9 2.3,8.2 3.7,8.4 1.6,0.4 4.5,-1.6 7.6,-6.3 3.1,-4.7 6.5,-12.3 8.8,-21.7 2.3,-9.6 3.5,-20.7 3.9,-32.6 0.3,-11.6 -0.1,-24.7 -1.6,-38.4 z"
   id="path48"
   inkscape:connector-curvature="0"
   style="fill:#4c7378" />
			<path
   class="st12"
   d="m 1594.6,1084 c -15.8,-15.2 -33,-25.8 -46.7,-31.9 -13.7,-6.1 -23.7,-7.4 -26,-4.5 -2.2,2.7 1.4,12.1 9.2,24.2 7.8,12.1 19.9,27.2 35,41.6 15.2,14.5 31.1,25.4 43.8,32.6 12.7,7.2 22.3,10.4 24.2,8.6 2.5,-2.2 0.6,-12.1 -5.9,-25.6 -6.3,-13.2 -17.6,-29.8 -33.6,-45 z"
   id="path50"
   inkscape:connector-curvature="0"
   style="fill:#689399" />
			<path
   class="st11"
   d="m 1570.9,980.2 c -18.8,-33.4 -46.3,-52.8 -52.6,-48.9 -6.1,3.7 -1.4,36.6 16.8,69 18.2,32.4 45.3,52.6 50.2,50.2 6,-3.1 4.4,-36.9 -14.4,-70.3 z"
   id="path52"
   inkscape:connector-curvature="0"
   style="fill:#4c7378" />
			<path
   class="st13"
   d="m 1640.7,1044.1 c -3.3,-22.7 -11.3,-42.4 -19.5,-55.3 -8.2,-13.1 -16.2,-19.7 -19.5,-18.4 -3.3,1.2 -5.1,11.1 -5.3,25.6 -0.2,14.5 0.8,33.4 3.7,53.9 2.9,20.5 7.6,38.9 11.9,52.8 4.5,13.9 9,23.1 11.5,23.1 3.3,0.2 9,-8.4 13.5,-23.1 4.5,-14.8 7,-35.9 3.7,-58.6 z"
   id="path54"
   inkscape:connector-curvature="0"
   style="fill:#57848a" />
			<path
   class="st12"
   d="m 1850.1,1169.6 c 18.8,-12.9 34.6,-26.6 45.3,-38.1 10.8,-11.3 16.6,-20.3 14.7,-23.7 -1.8,-3.1 -12.5,-2.9 -28,1.4 -15.4,4.3 -35.6,12.9 -55.3,26.4 -19.7,13.5 -34.6,29.7 -44.2,42.6 -9.4,13.1 -13.3,23.1 -11.7,25.2 2.2,2.5 12.7,0.4 27.2,-5.5 14.6,-5.6 33.2,-15.4 52,-28.3 z"
   id="path56"
   inkscape:connector-curvature="0"
   style="fill:#689399" />
			<path
   class="st11"
   d="m 1861.4,1069.7 c 13.1,-27.6 20.5,-54.3 23.5,-74.5 2.9,-20.1 1.8,-33.2 -1.6,-34.4 -3.4,-1.2 -11.9,8.8 -22.7,25.2 -10.8,16.6 -23.7,39.7 -36.2,65.9 -12.5,26.2 -21.9,51 -27.8,70 -5.9,18.8 -8.2,31.7 -5.9,33.2 2.7,1.8 13.7,-5.7 27.6,-20.5 13.6,-14.9 30,-37.3 43.1,-64.9 z"
   id="path58"
   inkscape:connector-curvature="0"
   style="fill:#4c7378" />
			
				<ellipse
   transform="matrix(0.1791,-0.9838,0.9838,0.1791,427.0609,2656.0017)"
   class="st12"
   cx="1805.1"
   cy="1072.1"
   rx="89.099998"
   ry="20.5"
   id="ellipse60"
   style="fill:#689399" />
			<path
   class="st12"
   d="m 1837.9,749.7 c 11.1,-23.7 19,-46.1 23.5,-63.3 4.5,-17.2 5.3,-28.9 2.2,-30.9 -3.1,-1.8 -12.9,5.1 -25,18.6 -12.1,13.5 -26.2,33.6 -37.7,58.1 -11.5,24.4 -17.6,48.3 -20.1,66.3 -2.5,18 -1.6,29.9 1,30.9 3.1,1.2 11.7,-7 22.3,-21.3 10.2,-14.4 22.7,-34.7 33.8,-58.4 z"
   id="path62"
   inkscape:connector-curvature="0"
   style="fill:#689399" />
			<path
   class="st11"
   d="m 1806.5,749.7 c 1.6,-24.6 0.8,-47.1 -1.4,-63.9 -2.2,-16.6 -5.7,-27.6 -9.2,-28.1 -3.5,-0.6 -10.2,8.8 -16.4,24.8 -6.3,16 -12.1,38.7 -13.9,64.3 -1.8,25.6 1.6,49.1 5.9,65.7 4.3,16.6 9.8,26.8 12.5,26.8 3.3,0 8.2,-10.4 12.5,-26.6 4.3,-16.3 8.4,-38.3 10,-63 z"
   id="path64"
   inkscape:connector-curvature="0"
   style="fill:#4c7378" />
			<path
   class="st12"
   d="m 1836,867.2 c 7.6,-12.1 13.7,-24.4 18.4,-35.8 4.5,-11.5 7.8,-22.3 9.8,-31.7 3.9,-18.6 2.9,-30.9 -0.4,-32.3 -3.3,-1.4 -11.9,7.2 -23.3,21.5 -5.5,7 -11.9,15.6 -18.6,25.2 -6.6,9.6 -13.7,19.9 -20.7,31.3 -7,11.1 -13.5,22.1 -19.2,32.3 -5.7,10.2 -10.6,19.5 -14.5,27.8 -7.8,16.4 -11.9,28 -9.8,29.7 2.3,2.2 13.9,-2.3 29.1,-13.7 7.6,-5.7 16,-13.1 24.4,-22.3 8.8,-9.1 17.2,-19.9 24.8,-32 z"
   id="path66"
   inkscape:connector-curvature="0"
   style="fill:#689399" />
			<path
   class="st11"
   d="m 1743.9,851.4 c -2.3,-12.3 -4.7,-23.8 -7,-34.2 -1,-5.3 -2.3,-10.2 -3.3,-14.9 -0.6,-2.3 -1.2,-4.5 -1.6,-6.8 -0.4,-2.2 -1,-4.3 -1.4,-6.3 -3.7,-16 -6.6,-27.2 -10.6,-27.8 -3.3,-0.6 -10.6,9 -15.4,27.2 -0.6,2.2 -1.2,4.7 -1.8,7 -0.6,2.5 -0.8,5.1 -1.2,7.6 -0.8,5.5 -1.2,11.1 -1.4,17 -0.2,11.9 0.8,25 3.1,38.3 5.1,26.6 14.5,48.5 22.3,63.9 8,15.4 14.9,24.8 17.4,24.4 3.3,-0.6 6.5,-11.9 7,-29.7 1,-17.4 -1.4,-41.1 -6.1,-65.7 z"
   id="path68"
   inkscape:connector-curvature="0"
   style="fill:#4c7378" />
			<path
   class="st13"
   d="m 1802.8,984.5 c 14.5,-19.9 24,-40.5 28.9,-56.3 4.9,-15.8 5.5,-27 2.2,-28.7 -3.1,-1.8 -12.3,4.1 -24.2,15.1 -11.9,10.9 -26.4,27 -40.3,45.9 -13.9,18.9 -24.2,38.1 -30.7,53 -6.6,14.9 -9.2,25.4 -7.2,27.2 2.5,2.2 12.9,-1.8 26.4,-11.1 13.8,-9.7 30.4,-25.2 44.9,-45.1 z"
   id="path70"
   inkscape:connector-curvature="0"
   style="fill:#57848a" />
			<path
   class="st11"
   d="m 1643.8,773.2 c -11.5,-24.2 -26.4,-43.2 -38.7,-55.7 -12.3,-12.5 -22.1,-18.6 -25.2,-16.8 -3.1,1.8 -2,13.3 2.9,29.9 4.9,16.6 13.3,37.9 23.8,60 5.3,11.1 10.6,21.3 15.4,30.7 2.3,4.7 4.9,9.2 7.2,13.3 2.3,4.1 4.5,8.2 6.5,11.7 8.2,14.5 14.3,24 17,23.7 3.1,-0.4 7.2,-11.5 7.2,-29.7 0,-4.5 -0.2,-9.6 -1,-14.7 -0.6,-5.3 -1.6,-10.8 -2.9,-16.6 -2.2,-11.4 -6.5,-23.7 -12.2,-35.8 z"
   id="path72"
   inkscape:connector-curvature="0"
   style="fill:#4c7378" />
			<path
   class="st11"
   d="m 1642.9,862.1 c -28.7,-36.2 -63.3,-55.5 -68.8,-50.6 -5.3,4.7 8.8,41 36.7,76.2 28,35.2 61.6,55.9 65.9,52.8 5.5,-3.7 -5.1,-42.2 -33.8,-78.4 z"
   id="path74"
   inkscape:connector-curvature="0"
   style="fill:#4c7378" />
			<path
   class="st12"
   d="m 1658.5,943.2 c -11.1,-11.7 -23.3,-20.5 -33.4,-26.2 -10.2,-5.7 -18.2,-7.8 -21.1,-5.7 -2.7,2.2 -2.7,10.8 1.2,22.1 3.9,11.3 11.7,25.6 23.8,38.1 12.1,12.5 26.2,20.5 37.5,24.8 11.3,4.1 19.9,4.5 21.7,2.5 2.2,-2.5 0.2,-10.8 -4.9,-21.1 -5.3,-10.4 -13.5,-22.9 -24.8,-34.5 z"
   id="path76"
   inkscape:connector-curvature="0"
   style="fill:#689399" />
			<path
   class="st12"
   d="m 1680.8,1052.1 c -13.3,-24.2 -27.2,-45.5 -38.3,-60.6 -11.1,-15.1 -19.9,-23.8 -22.9,-22.9 -2.7,1 -2.3,12.7 2.2,30.5 4.5,17.8 13.3,41.8 27,66.7 13.7,24.8 29.9,45.5 43.2,59.6 13.3,14.1 23.7,21.7 25.6,20.7 2.5,-1.4 0,-12.7 -6.5,-29.9 -6.7,-17.2 -16.8,-39.8 -30.3,-64.1 z"
   id="path78"
   inkscape:connector-curvature="0"
   style="fill:#689399" />
			<path
   class="st11"
   d="m 1742.5,1085.5 c 0.2,-18.2 -4.1,-34.4 -9.4,-45.5 -5.3,-11.1 -11.5,-17.4 -15.2,-16.8 -3.5,0.6 -7.4,8.2 -10.6,19.4 -3.1,11.3 -5.7,26 -5.9,42.2 -0.2,16.2 2.2,31.1 5.1,42.4 2.9,11.3 6.6,19.2 9.4,19.5 3.3,0.6 9.6,-5.3 15.4,-16.2 6,-10.8 11.1,-26.8 11.2,-45 z"
   id="path80"
   inkscape:connector-curvature="0"
   style="fill:#4c7378" />
			<path
   class="st12"
   d="m 1758.6,1150.4 c 8.4,-18.4 11.1,-36.9 10.8,-50.6 -0.6,-13.7 -4.1,-22.3 -7.6,-23.1 -3.5,-0.8 -10,5.7 -17.4,16 -7.4,10.4 -15.6,24.4 -23.1,40.7 -7.4,16.2 -12.3,31.9 -15.1,44.4 -2.9,12.5 -3.5,21.7 -1.4,23.3 2.5,2 11.5,-1 22.3,-9.6 10.6,-8.4 22.9,-22.5 31.5,-41.1 z"
   id="path82"
   inkscape:connector-curvature="0"
   style="fill:#689399" />
			<path
   class="st12"
   d="m 1705.2,833.2 c 0.8,-29.5 -2.7,-56.1 -7.6,-75.1 -4.7,-19.2 -10.6,-30.5 -14.3,-30.3 -3.5,0.2 -8,12.1 -11.7,31.1 -3.7,19 -6.8,44.8 -7.6,73.3 -0.8,28.5 1.4,54.5 4.1,73.7 2.9,19.2 6.6,31.3 9.4,31.7 3.3,0.4 9.8,-10.8 15.6,-29.5 6.1,-19 11.3,-45.4 12.1,-74.9 z"
   id="path84"
   inkscape:connector-curvature="0"
   style="fill:#689399" />
		</g>
		<path
   class="st9"
   d="m 1854.5,1355.3 c -0.4,3.5 -66.1,6.5 -147.2,6.5 -80.9,0 -146.8,-2.9 -147.2,-6.5 0,0.4 0,1 0,1.4 l 24.8,262.5 v 0 l 4.1,44 v 0 c 0.2,7.8 53,14.1 118.1,14.1 65.3,0 118.1,-6.3 118.1,-14.1 v 0 0 l 0.8,-9.2 c 0,-0.2 0,-0.4 0,-0.6 l 2,-20.3 v 0 0 l 26.2,-276.4 c 0.3,-0.4 0.3,-1 0.3,-1.4 z"
   id="path88"
   inkscape:connector-curvature="0"
   style="fill:#dec7b2" />
		<g
   id="g96">
			<path
   class="st14"
   d="m 1836.2,1550.3 1.2,-11.7 c -0.4,0.2 -0.8,0.4 -1.4,0.4 -44.2,16.4 -88.2,32.8 -132.3,49.3 -25.4,9.4 -50.8,19 -76,28.3 -3.7,1.4 -5.3,5.9 -2.3,8.8 23.5,23.7 58.6,24.4 89.1,32.6 9.6,2.5 19.2,6.1 27.4,11.3 h 16.8 c -19.5,-19 -49.3,-23.5 -75.8,-29.1 -15.2,-3.3 -30.9,-7.4 -43.4,-16.8 44,-16.4 87.8,-32.6 131.7,-49.1 21.6,-7.7 43.3,-15.7 65,-24 z"
   id="path90"
   inkscape:connector-curvature="0"
   style="fill:#ebdbcd" />
			<path
   class="st14"
   d="m 1721.2,1445.8 c 42.6,-11.9 85.4,-23.7 128,-35.4 l 2,-21.1 c -90.9,2 -181.8,6.1 -272.7,12.3 -4.7,0.4 -9.4,0.6 -14.1,1 l 1,10.6 c 78.6,-5.5 157.3,-9.6 235.9,-11.9 15.1,-0.4 30.3,-0.8 45.3,-1.2 -39.7,10.9 -79.4,21.7 -119,32.8 -49.8,13.9 -99.5,28.7 -146.4,50.6 -2.9,1.4 -5.9,2.7 -8.8,4.1 l 1.2,11.3 c 2.3,-1.2 4.9,-2.3 7.2,-3.5 45.1,-21.5 92.8,-36.3 140.4,-49.6 z"
   id="path92"
   inkscape:connector-curvature="0"
   style="fill:#ebdbcd" />
			<path
   class="st14"
   d="m 1612.2,1536.7 c 50,-0.8 99.3,-11.3 148,-22.1 26.8,-5.9 53.8,-12.1 80.9,-16.8 l 1,-10.8 c -66.3,11.7 -131.5,31.5 -198.6,37.5 -22.3,2 -45,2.3 -67.2,0.4 l 1,10.8 c 11.6,0.8 23.1,1.2 34.9,1 z"
   id="path94"
   inkscape:connector-curvature="0"
   style="fill:#ebdbcd" />
		</g>
		<path
   class="st7"
   d="m 1820.9,1355.1 v 0 c 0,2.7 -49.3,4.9 -110,4.9 -60.7,0 -110,-2.2 -110,-4.9 v 0 h -40.3 c 0,0 0,0 0,0.2 v 0 c 0.4,3.5 66.1,6.5 147.2,6.5 80.9,0 146.8,-2.9 147.2,-6.5 v 0 c 0,0 0,0 0,-0.2 z"
   id="path98"
   inkscape:connector-curvature="0"
   style="fill:#e8d4c1" />
	</g>
	<path
   class="st15"
   d="m 1114.5,628.9 c -15.8,58.4 -31.3,118.1 -58.4,172.4 -7.2,14.5 -20.3,51.2 -40.9,49.8 -20.1,-1.4 -37.1,-14.5 -45.9,-31.9 -8.6,-17.2 -33,-22.1 -48.9,-12.9 -17.6,10.4 -21.5,31.7 -12.9,48.9 16,32.3 47.3,54.3 81.7,63.3 45.9,11.9 82.3,-6.8 107.9,-45 44.8,-66.8 65.5,-149.1 86.4,-225.8 12.1,-44.4 -56.9,-63.3 -69,-18.8 z"
   id="path102"
   inkscape:connector-curvature="0"
   style="fill:#f0a173" />
	<path
   class="st6"
   d="m 1128.4,1424.5 c 4.7,27.8 10.6,55.3 17.4,82.7 12.3,48.3 91.1,27.8 78.8,-20.5 -7,-27.4 -12.7,-54.9 -17.4,-82.7 -3.5,-20.5 -30.7,-32.1 -50.2,-27 -23.3,6 -32.1,26.8 -28.6,47.5 z"
   id="path104"
   inkscape:connector-curvature="0"
   style="fill:#e3996d" />
	<path
   class="st6"
   d="m 1407.3,857 c 0,0 23.5,58.2 23.5,63.5 0,5.3 -108.5,20.5 -152.9,18 -34.2,-2 -112,-14.3 -107.5,-21.7 4.5,-7.4 27.8,-65.5 27.8,-65.5 0,0 56.7,14.3 102.4,12.9 45.7,-1.4 106.7,-7.2 106.7,-7.2 z"
   id="path106"
   inkscape:connector-curvature="0"
   style="fill:#e3996d" />
	<path
   class="st16"
   d="m 1170.2,916.9 c 0,0 31.5,10.4 49.6,12.9 77.6,11.1 127.8,4.7 127.8,4.7 0,0 -230.3,126.1 -237.9,142.5 -7.6,16.4 65.1,73.3 86.4,137.2 19,56.9 31.7,198.4 34.2,228.9 0.4,3.7 -1.8,7 -5.1,8.6 -7.6,3.5 -23.1,9.6 -46.3,13.9 -34.4,6.3 -56.7,12.5 -57.3,4.7 -0.6,-7.8 -128.4,-244.9 -133.1,-252.7 -4.7,-7.8 -78,-122.2 -81.1,-151.3 -9.1,-87.7 262.8,-149.4 262.8,-149.4 z"
   id="path108"
   inkscape:connector-curvature="0"
   style="fill:#ff8a91" />
	<path
   class="st4"
   d="m 1250.4,495.4 c 0,0 -62.2,12.5 -89.7,35.6 -24.6,20.7 -69.6,108.3 -79,127.1 -1.2,2.2 -0.6,4.7 1,6.5 6.1,6.1 20.9,19.9 34.6,27 17.6,9.2 52.8,16.2 52.8,16.2 l 8,-53.2 c 0,0 -19.4,35.2 -6.5,73.1 7.6,22.1 13.1,51.6 14.3,66.1 0.6,8.2 -1.2,54.7 -1.2,54.7 0,0 47.3,12.3 98.3,15.8 50.8,3.5 137.4,-12.9 137.4,-12.9 0,0 -4.3,-107.9 -1.6,-127.4 5.3,-39.1 -5.9,-67.6 -5.9,-67.6 l 14.9,59.4 c 0,0 51.2,6.5 61,1.4 9.4,-4.9 25.6,-18.8 32.6,-24.8 2.2,-1.8 2.9,-4.7 2.3,-7.4 -4.9,-19.9 -27.2,-102 -64.1,-142.9 -19,-20.9 -88.5,-42.6 -104.8,-42.6 -16.5,-0.3 -104.4,-4.1 -104.4,-4.1 z"
   id="path110"
   inkscape:connector-curvature="0"
   style="fill:#ffffff" />
	<path
   class="st17"
   d="m 1218.5,202.4 v 0 z"
   id="path112"
   inkscape:connector-curvature="0"
   style="fill:#001d80" />
	
	<path
   class="st18"
   d="m 1145.6,1512.2 c 0,0 29.5,5.5 42.6,1.2 20.1,-6.6 39.9,-22.1 39.9,-22.1 0,0 25,26.8 31.9,33.2 6.9,6.4 15.6,10.8 22.5,22.9 6.9,12.1 7.4,45.9 -39.3,77.6 -16.8,11.5 -37.9,85.4 -79.4,100.1 -27.8,9.8 -49.8,12.9 -68.6,4.3 -19.2,-8.8 -24,-29.7 14.5,-58.2 38.5,-28.5 29.7,-61.8 33.8,-82.7 4.1,-21 2.1,-76.3 2.1,-76.3 z"
   id="path116"
   inkscape:connector-curvature="0"
   style="fill:#ab534d" />
	<path
   class="st5"
   d="m 832.1,1488.2 c -3.9,30.9 -8,61.8 -11.9,92.6 -2.7,20.7 20.7,38.5 40.9,38.5 24.2,0 38.1,-17.8 40.9,-38.5 3.9,-30.9 8,-61.8 11.9,-92.6 2.7,-20.7 -20.7,-38.5 -40.9,-38.5 -24.3,0 -38.2,17.8 -40.9,38.5 z"
   id="path118"
   inkscape:connector-curvature="0"
   style="fill:#fcb58a" />
	<path
   class="st5"
   d="m 1013.7,788.4 c 23.5,4.7 41.4,19.9 58.4,36.2 12.1,11.5 28.9,-7.6 16.8,-19.4 -20.3,-19.4 -42.6,-36.7 -70.4,-42.2 -16.2,-3.3 -21.2,22.1 -4.8,25.4 z"
   id="path120"
   inkscape:connector-curvature="0"
   style="fill:#fcb58a" />
	<path
   class="st5"
   d="m 1345.6,415.9 -95.2,-0.6 c 0,0 7,90.7 7,91.3 0,16 21.3,28.9 47.7,28.9 26.4,0 47.7,-12.9 47.7,-28.9 -0.2,-0.4 -7.2,-90.7 -7.2,-90.7 z"
   id="path122"
   inkscape:connector-curvature="0"
   style="fill:#fcb58a" />
	<path
   class="st6"
   d="m 1301.2,431.9 c -17.6,0 -34.6,-2.9 -50.2,-8 l 1.2,18.2 c 10.8,5.1 27.8,8.8 45,10 15.1,1 36.4,1.6 50.8,-2.7 l -1.6,-23.7 c -14.5,4.1 -29.6,6.2 -45.2,6.2 z"
   id="path124"
   inkscape:connector-curvature="0"
   style="fill:#e3996d" />
	<path
   class="st19"
   d="m 1432.2,920.2 c 0,0 41.6,45.7 49.1,77.8 7.4,32.1 12.3,80.7 1.6,109.1 -10.8,28.3 -44.6,69.4 -106.1,73.1 -101.6,6.1 -313.5,-30.9 -322.9,-30.9 -9.4,0 -5.7,62 -37.5,148.6 -28.5,77 -79.4,205 -90.1,231.8 -1.2,3.1 -4.1,5.1 -7.4,5.3 -11.1,0.6 -37.5,1.2 -64.3,-3.1 -18.8,-2.9 -32.6,-10.8 -40.1,-15.6 -3.5,-2.3 -5.3,-6.5 -4.9,-10.6 3.3,-29.7 17.6,-153.2 26.4,-203.9 9.4,-53.4 16.2,-259 50.2,-300.6 29.7,-36.4 40.5,-40.3 73.9,-50.8 30.1,-9.4 351.6,-12.3 351.6,-12.3 z"
   id="path126"
   inkscape:connector-curvature="0"
   style="fill:#ffadb2" />
	<path
   class="st20"
   d="m 812.5,1595.7 c -9.8,18.2 -29.1,43.4 -45,53.9 -37.3,25 -84.8,58.8 -91.9,65.9 -7,7 -23.1,37.3 1.4,53.6 17.6,11.5 68.4,16 132.5,-15.6 48.3,-23.8 72.3,-28.9 89.9,-35.6 29.3,-10.8 22.7,-42.8 16.6,-58.4 -4.7,-12.3 -6.1,-14.7 -9.4,-46.5 -0.8,-6.8 -3.5,-34.6 -3.5,-34.6 0,0 -24.8,8.4 -52,5.1 -19.9,-2.5 -31.1,-15.8 -31.1,-15.8 0,0 -3.9,21.5 -7.5,28 z"
   id="path128"
   inkscape:connector-curvature="0"
   style="fill:#c7645d" />
	<path
   class="st21"
   d="m 1466,1217.3 h -360.6 c -6.1,0 -10.9,-4.9 -10.9,-10.9 v -35.8 c 0,-6.1 4.9,-10.9 10.9,-10.9 H 1466 c 6.1,0 10.9,4.9 10.9,10.9 v 35.8 c 0,6 -4.9,10.9 -10.9,10.9 z"
   id="path130"
   inkscape:connector-curvature="0"
   style="fill:#ab8868" />
	<path
   class="st22"
   d="m 737.5,650.4 192.7,19.2 c 4.5,0.4 8.8,2.9 11.9,6.8 l 205.2,254.7 c 2.3,2.9 0.4,7.8 -2.7,7.4 L 942.9,916.2 c -3.7,-0.4 -7,-2.3 -9.6,-5.7 L 735.5,655.9 c -1.7,-2.1 -0.4,-5.9 2,-5.5 z"
   id="path132"
   inkscape:connector-curvature="0"
   style="fill:#d7d7e6" />
	<path
   class="st5"
   d="m 1441.1,701.1 c 0.8,3.7 1.6,7.4 2.3,11.1 0.2,1.6 1.8,10 1.2,6.6 -0.4,-2.9 0.8,6.3 1,8.4 0.4,3.9 0.6,7.8 0.8,11.7 0.2,7.2 0,14.5 -0.4,21.9 -0.2,2.2 -0.4,4.5 -0.6,6.6 0,-0.6 0.8,-5.5 0.2,-1.2 -0.8,4.3 -1.6,8.8 -2.7,13.1 -0.8,3.3 -2,6.5 -2.9,9.6 -2.2,7.2 0.6,0.2 -2,5.3 -1.6,2.9 -3.1,6.1 -4.7,8.8 -1,1.6 -7.6,11.1 -4.1,6.6 -10.9,13.7 -19.2,19.7 -36,27.4 -66.1,30.3 -153.2,6.3 -221.7,-10 -30.3,-7.2 -60.6,-15.1 -90.3,-24.4 -44,-13.9 -62.7,55.1 -19,69 73.9,23.5 151.7,41.6 228.9,48.7 88.5,8 186.7,-20.9 217.9,-112.6 13.7,-40.3 10.6,-84.8 1.6,-125.7 -10.2,-45 -79.2,-25.9 -69.5,19.1 z"
   id="path134"
   inkscape:connector-curvature="0"
   style="fill:#fcb58a" />
	<path
   class="st4"
   d="m 1419.3,679.2 c 6.5,-4.3 78,-55.3 78,-55.3 l 25.4,66.8 c 0,0 -7.2,12.7 -35.8,27.2 -28.9,14.5 -56.1,11.1 -56.1,11.1 z"
   id="path136"
   inkscape:connector-curvature="0"
   style="fill:#ffffff" />
	<path
   class="st4"
   d="m 1375.5,937.4 c 2,18 3.7,36.2 5.7,54.1 1.8,16.2 4.1,32.6 4.7,49.1 0.4,13.7 -1.4,28.3 -11.5,38.5 -9,9 -21.9,12.1 -34.2,13.1 -14.7,1.2 -29.3,0 -44,-0.6 -17.8,-0.8 -35.6,-1.6 -53.4,-2.3 -36,-1.6 -71.9,-3.1 -107.7,-4.5 -17.4,-0.8 -34.8,-1.6 -52.2,-2.2 -14.1,-0.6 -28.3,-0.8 -42.4,0.6 -27.4,2.7 -54.1,11.7 -71.5,34.2 -18,23.3 -23.3,53.2 -29.3,81.1 -7.6,35.4 -15.2,70.6 -22.9,105.9 -7.7,35.3 -15.2,70.6 -22.9,105.9 -6.5,29.5 -12.3,59.4 -19.9,88.5 -1.2,4.5 -2.3,9.2 -3.7,13.7 -2,6.6 8.2,9.4 10.2,2.7 7.4,-25.2 12.7,-50.8 18.2,-76.4 7.6,-35.4 15.2,-70.6 22.9,-105.9 7.6,-35.6 15.4,-71.1 23.1,-106.7 3.5,-16.4 6.8,-32.8 10.8,-49.1 3.3,-14.1 7.2,-28 14.1,-40.9 6.5,-12.3 15.4,-22.7 27.6,-29.7 11.7,-7 25,-10.6 38.5,-12.3 30.5,-4.1 62.4,-0.6 93,0.8 36,1.6 71.9,3.1 107.7,4.5 18.2,0.8 36.2,1.6 54.3,2.3 15.1,0.6 30.5,2 45.5,1.2 12.7,-0.6 26,-2.7 37.1,-9.6 11.5,-6.8 19.2,-18.4 21.9,-31.5 3.1,-14.7 1.4,-29.7 -0.2,-44.4 -2,-18 -3.7,-36.2 -5.7,-54.1 -1,-8.8 -1.8,-17.4 -2.7,-26.2 -1.4,-6.5 -11.9,-6.7 -11.1,0.2 z"
   id="path138"
   inkscape:connector-curvature="0"
   style="fill:#ffffff" />
	<g
   id="g146">
		<path
   class="st23"
   d="m 286.2,1767.1 v 0 c -9.8,-3.5 -14.9,-14.1 -11.7,-23.8 L 510.2,970.6 c 3.3,-10 14.3,-15.4 24.2,-11.9 l 24.6,8.8 c 10,3.5 15.1,14.7 11.3,24.4 l -260,764.1 c -3.6,9.6 -14.4,14.6 -24.1,11.1 z"
   id="path140"
   inkscape:connector-curvature="0"
   style="fill:#8a6645" />
		<path
   class="st23"
   d="m 1508.2,1767.1 v 0 c 9.8,-3.5 14.9,-14.1 11.7,-23.8 L 1284.4,970.6 c -3.3,-10 -14.3,-15.4 -24.2,-11.9 l -24.6,8.8 c -10,3.5 -15.1,14.7 -11.3,24.4 l 260.2,763.9 c 3.2,9.8 13.9,14.8 23.7,11.3 z"
   id="path142"
   inkscape:connector-curvature="0"
   style="fill:#8a6645" />
		<path
   class="st24"
   d="M 1546.9,997.2 H 247.7 c -10.6,0 -19.2,-8.6 -19.2,-19.2 v -42 c 0,-10.6 8.6,-19.2 19.2,-19.2 h 1299.2 c 10.6,0 19.2,8.6 19.2,19.2 v 42 c -0.2,10.6 -8.7,19.2 -19.2,19.2 z"
   id="path144"
   inkscape:connector-curvature="0"
   style="fill:#c49c77" />
	</g>
	<g
   id="g162">
		<path
   class="st3"
   d="m 402.3,1666.5 c -119.4,-14.9 -173,62 -173.2,62.2 0,-0.2 5.7,4.1 5.7,-12.1 l -2.7,-24.2 v 0 c 0,0 -10.2,3.1 -14.1,4.7 -12.1,5.1 -23.1,19.4 -26.4,19.2 -3.1,-0.2 -14.5,-10.4 -32.3,-15.2 -17.8,-4.9 -38.7,-0.2 -40.7,-1.6 -1.8,-1.2 -1.2,-7.4 -3.9,-15.4 -3.3,-9.4 -11.9,-20.1 -11.9,-20.1 v 0 c -0.4,0.4 -27.2,51.6 -32.8,62 -5.6,10.4 -15.2,26.4 -16.6,60.8 -2,45.9 28.9,27.4 28.9,27.4 l -21.5,-19.9 h -30.9 -9 c -11.5,0 -20.9,11.3 -20.9,25 0,13.7 9.4,25 20.9,25 h 9 30.9 480.6 l 0.4,-43 c 0,-0.6 2.8,-117.1 -139.5,-134.8 z"
   id="path148"
   inkscape:connector-curvature="0"
   style="fill:#110580" />
		<path
   class="st3"
   d="M 516.4,1863.7 H 82.3 c -13.9,0 -25,-11.3 -25,-25 v 0 c 0,-13.9 11.3,-25 25,-25 h 434.1 c 13.9,0 25,11.3 25,25 v 0 c 0,13.6 -11.3,25 -25,25 z"
   id="path150"
   inkscape:connector-curvature="0"
   style="fill:#110580" />
		<path
   class="st25"
   d="m 445.5,1728.4 c -26.6,-4.9 -54.7,-3.1 -78.4,10.9 -16.8,10 -30.3,25.4 -37.5,43.6 -2.5,6.5 -4.3,13.3 -4.5,20.1 -16,-1 -33.2,-1 -48.1,5.3 -7.8,3.3 -14.5,8.6 -17.6,16.8 -2.9,7.4 -2.9,16.4 0.4,23.8 3.7,8.6 11.5,14.1 20.9,14.1 3.7,0 3.7,-5.9 0,-5.9 -15.2,-0.2 -20.5,-17.8 -15.6,-29.9 5.9,-14.9 25.6,-17.6 39.5,-18.4 8,-0.4 15.8,-0.2 23.8,0.4 1.6,0.2 2.9,-1.4 2.9,-2.9 -0.8,-14.1 6.3,-28.9 14.9,-40.3 12.5,-16.6 31.1,-27.8 51.2,-32.1 15.4,-3.3 31.5,-2.7 46.9,0.2 3.3,0.6 4.9,-5.1 1.2,-5.7 z"
   id="path152"
   inkscape:connector-curvature="0"
   style="fill:#787ccb" />
		<path
   class="st3"
   d="m 487.3,1857.4 c 19.5,4.5 40.1,5.3 59.8,9 11.5,2.2 35.8,7.6 14.7,17.2 -26.6,12.1 -62.7,3.9 -90.9,5.5 -31.1,2 -65.1,10 -85.8,35 -21.1,25.4 -13.1,80.3 28.7,75.6 25,-2.9 36,-28.3 19.9,-48.1 -0.8,-1 -1.6,-2 -2.3,-2.9 2.5,4.5 5.1,8.8 7.8,13.3 -1.8,-4.9 -4.7,1.4 0.8,-1.2 6.5,-3.1 11.9,-7.2 18.8,-9.6 14.5,-4.9 29.7,-6.3 44.6,-7.8 30.9,-2.9 70.2,-2.5 94.8,-24.4 24.4,-21.7 28.1,-60.6 -0.4,-80.9 -27.4,-19.4 -80.1,-17.2 -110.6,-7.2 -12,4.2 -13.6,23.2 0.1,26.5 z"
   id="path154"
   inkscape:connector-curvature="0"
   style="fill:#110580" />
		<path
   class="st25"
   d="m 88,1752.5 c 1.2,7 7.4,12.5 14.1,14.1 7,1.6 15.1,-0.6 19.9,-6.1 2,-2.3 -1.4,-5.7 -3.3,-3.3 -3.7,4.3 -9.8,6.1 -15.2,4.9 -5.3,-1.2 -9.8,-5.3 -10.8,-10.8 -0.8,-3.1 -5.3,-2 -4.7,1.2 z"
   id="path156"
   inkscape:connector-curvature="0"
   style="fill:#787ccb" />
		<path
   class="st25"
   d="m 154.6,1768.3 c 0,7 6.6,12.3 13.1,13.5 7.8,1.4 15.4,-2.2 21.3,-7 2.3,-2 -1,-5.3 -3.3,-3.3 -4.5,3.9 -10.4,6.6 -16.4,5.9 -4.5,-0.6 -10,-3.9 -10,-9 0,-3.2 -4.7,-3.2 -4.7,-0.1 z"
   id="path158"
   inkscape:connector-curvature="0"
   style="fill:#787ccb" />
		<path
   class="st25"
   d="m 132.9,1798.8 c -4.5,-3.7 -9.8,-5.9 -15.4,-6.6 -1,-0.2 -2.2,0.6 -2.5,1.4 -0.6,1 -0.4,2 0,2.9 0.2,0.2 0.4,0.6 0.4,0.8 -0.2,-0.8 0,0.2 0.2,0.4 0.2,0.4 0.2,0.8 0.4,1.4 0,0.2 0.2,0.4 0.2,0.8 v 0.2 c 0,0.4 0,0.8 0.2,1.4 0.2,2.2 0.2,4.1 0.4,6.3 0,0.2 0,0.2 0,0.4 v 0 0.2 0.2 c 0.4,1.2 2,2 3.1,1.8 0.2,0 0.2,0 0.2,0 v 0 0 c 0.4,-0.2 1,-0.4 1.4,-0.8 0.2,-0.2 0.4,-0.4 0.4,-0.4 v 0 0 c 0.4,-0.4 1,-0.6 1.4,-0.8 0.2,-0.2 0.6,-0.2 0.8,-0.4 0.2,0 0.2,-0.2 0.4,-0.2 0.6,-0.2 1.2,-0.4 1.6,-0.6 2.3,-1 4.9,-2 6.6,-3.7 1.2,-1.6 1.4,-3.7 0.2,-4.7 z m -8.4,8.6 c 0.2,0 0.2,0 0,0 0.6,-0.2 0.2,0 0,0 z"
   id="path160"
   inkscape:connector-curvature="0"
   style="fill:#787ccb" />
	</g>
	<g
   id="g166">
		<path
   class="st26"
   d="m 940.8,206.5 c -15.2,-45 -54.5,-81.1 -101.2,-95.8 -46.7,-14.7 -99.7,-8.2 -142.3,15.4 -20.9,11.5 -39.9,27.6 -51.6,47.9 -11.7,20.3 -15.4,45.5 -6.8,67.4 10.4,26.4 36.4,43.8 62.7,56.1 28.3,13.3 67,22.1 103,13.1 v 0 c 29.7,18.2 59.4,36.6 89.1,54.7 -5.5,-20.3 -21.9,-60.6 -22.5,-60.8 l 3.9,-0.4 c 21.5,-7.6 41,-20.9 55.1,-38.3 6.8,-8.4 12.7,-18.2 14.5,-28.9 1.7,-10.2 -0.6,-20.6 -3.9,-30.4 z"
   id="path164"
   inkscape:connector-curvature="0"
   style="fill:#fcfaf8" />
	</g>
	
	<g
   id="g174">
		
	</g>
	<path
   class="st27"
   d="m 1185.1,629.1 c 0,0 -11.7,34 -14.5,46.1 -3.1,14.1 -3.1,32.1 -3.1,32.1 l -11.5,-2.5 c 0,0 2.9,-18.2 10.4,-37.5 3.8,-10 18.7,-38.2 18.7,-38.2 z"
   id="path176"
   inkscape:connector-curvature="0"
   style="fill:#e0e0e0" />
	<path
   class="st27"
   d="m 1412.8,650.8 c 0,0 4.5,33 5.3,40.1 1.8,14.7 1.2,37.1 1.2,37.1 l 11.5,0.8 c 0,0 -2.5,-27.8 -7.8,-46.1 -2.4,-8.8 -10.2,-31.9 -10.2,-31.9 z"
   id="path178"
   inkscape:connector-curvature="0"
   style="fill:#e0e0e0" />
	<path
   class="st4"
   d="m 1378.4,439.7 c -16.4,0 -29.5,-23.1 -29.5,-52.4 0,-29.3 12.9,-52.4 29.5,-52.4 16.4,0 29.5,23.1 29.5,52.4 0,29.6 -12.9,52.4 -29.5,52.4 z m 0,-97.5 c -12.1,0 -22.3,20.7 -22.3,45.3 0,24.6 10.2,45.3 22.3,45.3 12.1,0 22.3,-20.7 22.3,-45.3 0,-24.6 -10.2,-45.3 -22.3,-45.3 z"
   id="path180"
   inkscape:connector-curvature="0"
   style="fill:#ffffff" />
	<path
   class="st3"
   d="m 1506.2,450.5 c 12.9,-6.1 11.9,-12.3 8.8,-23.5 l -63.5,-178.8 c -19,-63.3 -80.7,-109.9 -154,-109.9 -47.7,0 -75.1,20.1 -75.1,20.1 v 0 c 0.4,0 30.9,7.4 53.6,28.7 22.9,21.5 9.2,47.5 36.6,73.3 18.4,17.2 50.4,25.8 50.4,25.8 0,2.5 5.1,124.3 7.2,175.9 0.8,18.2 11.1,16.4 47.5,11.3 48.3,-6.7 67.2,-13 88.5,-22.9 z"
   id="path182"
   inkscape:connector-curvature="0"
   style="fill:#110580" />
	<path
   class="st27"
   d="m 1278.3,242.5 c -18.8,0 -35,10.6 -43.2,26.2 -6.8,-3.5 -14.3,-5.3 -22.1,-5.3 -2.5,0 -5.1,0.2 -7.6,0.6 -6.1,-20.1 -24.6,-34.8 -46.7,-34.8 -27,0 -48.9,21.9 -48.9,48.9 0,27 21.9,48.9 48.9,48.9 27,0 48.9,-21.9 48.9,-48.9 0,-2.2 -0.2,-4.5 -0.6,-6.6 8.6,-1.2 17.6,0.2 25.2,4.3 -1.8,4.9 -2.7,10.2 -2.7,15.6 0,27 21.9,48.9 48.9,48.9 27,0 48.9,-21.9 48.9,-48.9 0,-27 -22,-48.9 -49,-48.9 z m -119.6,76.8 c -22.9,0 -41.2,-18.6 -41.2,-41.2 0,-22.9 18.6,-41.2 41.2,-41.2 22.9,0 41.2,18.6 41.2,41.2 0,22.7 -18.5,41.2 -41.2,41.2 z m 119.6,13.3 c -22.9,0 -41.2,-18.6 -41.2,-41.2 0,-22.9 18.6,-41.2 41.2,-41.2 22.9,0 41.2,18.6 41.2,41.2 0.3,22.6 -18.3,41.2 -41.2,41.2 z"
   id="path184"
   inkscape:connector-curvature="0"
   style="fill:#e0e0e0" />
	<path
   class="st5"
   d="m 1037.1,870.5 -38.9,-3.9 c -24.4,-2.5 -43.4,-20.7 -41.8,-40.7 l 0.6,-6.8 c 1.6,-19.7 22.9,-34 47.3,-31.5 l 38.9,3.9 c 24.4,2.5 43.4,20.7 41.8,40.7 l -0.6,6.8 c -1.5,20 -22.8,34.1 -47.3,31.5 z"
   id="path186"
   inkscape:connector-curvature="0"
   style="fill:#fcb58a" />
	
	<g
   id="g200"
   transform="matrix(-1,0,0,1,1579.7162,0)">
		<path
   class="st28"
   d="m 790.3,251.7 c -0.4,2.3 -0.8,4.9 0,7.2 0.6,2 1.6,3.9 3.1,5.3 1.2,1.2 2.3,2 3.9,2.5 1.4,0.8 2.9,1.2 4.7,1 2.2,0 4.3,-0.6 6.1,-1.6 0,0 0.2,0 0.2,-0.2 -1,0.4 -2,0.8 -2.9,1.2 h 0.2 c -1.2,0.2 -2.2,0.4 -3.3,0.4 0,0 0,0 0.2,0 1.2,-0.2 2.2,-0.4 3.3,-0.4 1,-0.4 2,-0.8 2.9,-1.2 0.8,-0.6 1.8,-1.4 2.5,-2 0.6,-0.8 1.4,-1.8 2,-2.5 0.4,-1 0.8,-2 1.2,-2.9 0.2,-1.2 0.4,-2.2 0.4,-3.3 -0.2,-1.2 -0.4,-2.2 -0.4,-3.3 -0.4,-1.6 -1.2,-3.1 -2.3,-4.3 -0.6,-1 -1.4,-1.8 -2.3,-2.3 -0.8,-0.8 -1.8,-1.4 -2.7,-1.6 -1,-0.6 -2,-0.8 -3.1,-0.8 -1.2,-0.4 -2.2,-0.4 -3.3,0 -1.2,0 -2.2,0.2 -3.1,0.8 -1,0.4 -2,0.8 -2.7,1.6 -1,0.6 -1.8,1.4 -2.3,2.3 -1.2,1.2 -2,2.5 -2.3,4.1 z"
   id="path196"
   inkscape:connector-curvature="0"
   style="fill:#d6d7f0" />
		<path
   class="st28"
   d="m 787.6,228.4 c 8.2,4.1 19,-0.8 18.8,-10.8 -5.70385,-146.73752 -73.99062,-104.29839 -18.8,10.8 z"
   id="path198"
   inkscape:connector-curvature="0"
   style="fill:#d6d7f0"
   sodipodi:nodetypes="ccc" />
	</g>
	<g
   id="g208">
		<path
   class="st29"
   d="m 617.9,916.9 h -32.6 c -22.1,0 -40.5,-17.4 -41.6,-39.5 l -5.3,-96 c -0.2,-3.5 2.7,-6.6 6.3,-6.6 h 113.8 c 3.5,0 6.5,3.1 6.3,6.6 l -5.3,96 c -1.2,22.1 -19.6,39.5 -41.6,39.5 z"
   id="path202"
   inkscape:connector-curvature="0"
   style="fill:#ff5856" />
		<path
   class="st29"
   d="m 663.6,796.4 -0.8,14.7 c 13.5,2.7 23.5,14.7 23.5,28.9 0,15.4 -11.9,28 -27,29.3 l -0.8,14.7 c 23.7,-1 42.4,-20.3 42.4,-44 -0.2,-22 -16.2,-40.2 -37.3,-43.6 z"
   id="path204"
   inkscape:connector-curvature="0"
   style="fill:#ff5856" />
		<path
   class="st30"
   d="m 610,752.3 c 0,0 -28,-25.8 -27,-44.8 1.4,-28.9 27.4,-39.9 17.4,-67.2 -4.7,-12.9 -24.2,-54.9 -24.2,-54.9 0,0 32.3,31.9 43.6,51.6 10.4,17.8 9.2,46.1 -2.2,59.6 -24.4,29.5 -7.6,55.7 -7.6,55.7 z"
   id="path206"
   inkscape:connector-curvature="0"
   style="fill:#dcdced" />
	</g>
	
</g>
</svg>